<svg width="31" height="34" viewBox="0 0 31 34" fill="none" xmlns="http://www.w3.org/2000/svg">
<path d="M6.33 33.91C4.39 32.03 2.88 29.63 1.8 26.71C0.74 23.79 0.21 20.66 0.21 17.32C0.21 13.9 0.77 10.69 1.89 7.69C3.01 4.67 4.64 2.2 6.78 0.279999H11.01V0.669998C8.81 2.77 7.13 5.29 5.97 8.23C4.83 11.17 4.26 14.2 4.26 17.32C4.26 20.36 4.8 23.3 5.88 26.14C6.98 28.96 8.54 31.41 10.56 33.49V33.91H6.33ZM19.699 33.91V33.49C21.719 31.41 23.269 28.96 24.349 26.14C25.449 23.3 25.999 20.36 25.999 17.32C25.999 14.2 25.419 11.17 24.259 8.23C23.119 5.29 21.449 2.77 19.249 0.669998V0.279999H23.479C25.619 2.2 27.249 4.67 28.369 7.69C29.489 10.69 30.049 13.9 30.049 17.32C30.049 20.66 29.509 23.79 28.429 26.71C27.369 29.63 25.869 32.03 23.929 33.91H19.699Z" fill="#78007A"/>
</svg>
