<svg width="17" height="23" viewBox="0 0 17 23" fill="none" xmlns="http://www.w3.org/2000/svg">
<path d="M0.59 11.78C0.59 8.32 1.21 5.61 2.45 3.65C3.71 1.69 5.79 0.709999 8.69 0.709999C11.59 0.709999 13.66 1.69 14.9 3.65C16.16 5.61 16.79 8.32 16.79 11.78C16.79 15.26 16.16 17.99 14.9 19.97C13.66 21.95 11.59 22.94 8.69 22.94C5.79 22.94 3.71 21.95 2.45 19.97C1.21 17.99 0.59 15.26 0.59 11.78ZM12.65 11.78C12.65 10.3 12.55 9.06 12.35 8.06C12.17 7.04 11.79 6.21 11.21 5.57C10.65 4.93 9.81 4.61 8.69 4.61C7.57 4.61 6.72 4.93 6.14 5.57C5.58 6.21 5.2 7.04 5 8.06C4.82 9.06 4.73 10.3 4.73 11.78C4.73 13.3 4.82 14.58 5 15.62C5.18 16.64 5.56 17.47 6.14 18.11C6.72 18.73 7.57 19.04 8.69 19.04C9.81 19.04 10.66 18.73 11.24 18.11C11.82 17.47 12.2 16.64 12.38 15.62C12.56 14.58 12.65 13.3 12.65 11.78Z" fill="#313131"/>
</svg>
