<svg width="16" height="23" viewBox="0 0 16 23" fill="none" xmlns="http://www.w3.org/2000/svg">
<path d="M1.91 18.26C3.83 16.66 5.36 15.33 6.5 14.27C7.64 13.19 8.59 12.07 9.35 10.91C10.11 9.75 10.49 8.61 10.49 7.49C10.49 6.47 10.25 5.67 9.77 5.09C9.29 4.51 8.55 4.22 7.55 4.22C6.55 4.22 5.78 4.56 5.24 5.24C4.7 5.9 4.42 6.81 4.4 7.97H0.32C0.4 5.57 1.11 3.75 2.45 2.51C3.81 1.27 5.53 0.649998 7.61 0.649998C9.89 0.649998 11.64 1.26 12.86 2.48C14.08 3.68 14.69 5.27 14.69 7.25C14.69 8.81 14.27 10.3 13.43 11.72C12.59 13.14 11.63 14.38 10.55 15.44C9.47 16.48 8.06 17.74 6.32 19.22H15.17V22.7H0.35V19.58L1.91 18.26Z" fill="#313131"/>
</svg>
