<svg width="16" height="24" viewBox="0 0 16 24" fill="none" xmlns="http://www.w3.org/2000/svg">
<path d="M0.65 6.89C0.75 4.89 1.45 3.35 2.75 2.27C4.07 1.17 5.8 0.619998 7.94 0.619998C9.4 0.619998 10.65 0.879999 11.69 1.4C12.73 1.9 13.51 2.59 14.03 3.47C14.57 4.33 14.84 5.31 14.84 6.41C14.84 7.67 14.51 8.74 13.85 9.62C13.21 10.48 12.44 11.06 11.54 11.36V11.48C12.7 11.84 13.6 12.48 14.24 13.4C14.9 14.32 15.23 15.5 15.23 16.94C15.23 18.14 14.95 19.21 14.39 20.15C13.85 21.09 13.04 21.83 11.96 22.37C10.9 22.89 9.62 23.15 8.12 23.15C5.86 23.15 4.02 22.58 2.6 21.44C1.18 20.3 0.43 18.62 0.35 16.4H4.43C4.47 17.38 4.8 18.17 5.42 18.77C6.06 19.35 6.93 19.64 8.03 19.64C9.05 19.64 9.83 19.36 10.37 18.8C10.93 18.22 11.21 17.48 11.21 16.58C11.21 15.38 10.83 14.52 10.07 14C9.31 13.48 8.13 13.22 6.53 13.22H5.66V9.77H6.53C9.37 9.77 10.79 8.82 10.79 6.92C10.79 6.06 10.53 5.39 10.01 4.91C9.51 4.43 8.78 4.19 7.82 4.19C6.88 4.19 6.15 4.45 5.63 4.97C5.13 5.47 4.84 6.11 4.76 6.89H0.65Z" fill="#313131"/>
</svg>
