<svg width="16" height="22" viewBox="0 0 16 22" fill="none" xmlns="http://www.w3.org/2000/svg">
<path d="M14.29 3.76H4.57V8.89C4.99 8.37 5.59 7.95 6.37 7.63C7.15 7.29 7.98 7.12 8.86 7.12C10.46 7.12 11.77 7.47 12.79 8.17C13.81 8.87 14.55 9.77 15.01 10.87C15.47 11.95 15.7 13.11 15.7 14.35C15.7 16.65 15.04 18.5 13.72 19.9C12.42 21.3 10.56 22 8.14 22C5.86 22 4.04 21.43 2.68 20.29C1.32 19.15 0.55 17.66 0.37 15.82H4.45C4.63 16.62 5.03 17.26 5.65 17.74C6.29 18.22 7.1 18.46 8.08 18.46C9.26 18.46 10.15 18.09 10.75 17.35C11.35 16.61 11.65 15.63 11.65 14.41C11.65 13.17 11.34 12.23 10.72 11.59C10.12 10.93 9.23 10.6 8.05 10.6C7.21 10.6 6.51 10.81 5.95 11.23C5.39 11.65 4.99 12.21 4.75 12.91H0.73V0.0699998H14.29V3.76Z" fill="#313131"/>
</svg>
