<svg width="17" height="24" viewBox="0 0 17 24" fill="none" xmlns="http://www.w3.org/2000/svg">
<path d="M4.25 11.42C2.25 10.38 1.25 8.77 1.25 6.59C1.25 5.51 1.52 4.53 2.06 3.65C2.62 2.75 3.45 2.04 4.55 1.52C5.67 0.979999 7.03 0.709999 8.63 0.709999C10.23 0.709999 11.58 0.979999 12.68 1.52C13.8 2.04 14.63 2.75 15.17 3.65C15.73 4.53 16.01 5.51 16.01 6.59C16.01 7.69 15.74 8.66 15.2 9.5C14.66 10.32 13.94 10.96 13.04 11.42C14.14 11.9 15 12.6 15.62 13.52C16.24 14.44 16.55 15.53 16.55 16.79C16.55 18.15 16.2 19.34 15.5 20.36C14.82 21.36 13.88 22.13 12.68 22.67C11.48 23.21 10.13 23.48 8.63 23.48C7.13 23.48 5.78 23.21 4.58 22.67C3.4 22.13 2.46 21.36 1.76 20.36C1.08 19.34 0.74 18.15 0.74 16.79C0.74 15.53 1.05 14.44 1.67 13.52C2.29 12.58 3.15 11.88 4.25 11.42ZM11.93 7.19C11.93 6.21 11.63 5.45 11.03 4.91C10.45 4.37 9.65 4.1 8.63 4.1C7.63 4.1 6.83 4.37 6.23 4.91C5.65 5.45 5.36 6.22 5.36 7.22C5.36 8.12 5.66 8.84 6.26 9.38C6.88 9.92 7.67 10.19 8.63 10.19C9.59 10.19 10.38 9.92 11 9.38C11.62 8.82 11.93 8.09 11.93 7.19ZM8.63 13.25C7.49 13.25 6.56 13.54 5.84 14.12C5.14 14.7 4.79 15.53 4.79 16.61C4.79 17.61 5.13 18.43 5.81 19.07C6.51 19.69 7.45 20 8.63 20C9.81 20 10.74 19.68 11.42 19.04C12.1 18.4 12.44 17.59 12.44 16.61C12.44 15.55 12.09 14.73 11.39 14.15C10.69 13.55 9.77 13.25 8.63 13.25Z" fill="#313131"/>
</svg>
