<svg width="17" height="24" viewBox="0 0 17 24" fill="none" xmlns="http://www.w3.org/2000/svg">
<path d="M5.45 16.85C5.61 17.73 5.97 18.41 6.53 18.89C7.11 19.35 7.88 19.58 8.84 19.58C10.08 19.58 10.98 19.07 11.54 18.05C12.1 17.01 12.38 15.27 12.38 12.83C11.92 13.47 11.27 13.97 10.43 14.33C9.61 14.69 8.72 14.87 7.76 14.87C6.48 14.87 5.32 14.61 4.28 14.09C3.26 13.55 2.45 12.76 1.85 11.72C1.25 10.66 0.95 9.38 0.95 7.88C0.95 5.66 1.61 3.9 2.93 2.6C4.25 1.28 6.05 0.619998 8.33 0.619998C11.17 0.619998 13.17 1.53 14.33 3.35C15.51 5.17 16.1 7.91 16.1 11.57C16.1 14.17 15.87 16.3 15.41 17.96C14.97 19.62 14.2 20.88 13.1 21.74C12.02 22.6 10.54 23.03 8.66 23.03C7.18 23.03 5.92 22.75 4.88 22.19C3.84 21.61 3.04 20.86 2.48 19.94C1.94 19 1.63 17.97 1.55 16.85H5.45ZM8.63 11.45C9.67 11.45 10.49 11.13 11.09 10.49C11.69 9.85 11.99 8.99 11.99 7.91C11.99 6.73 11.67 5.82 11.03 5.18C10.41 4.52 9.56 4.19 8.48 4.19C7.4 4.19 6.54 4.53 5.9 5.21C5.28 5.87 4.97 6.75 4.97 7.85C4.97 8.91 5.27 9.78 5.87 10.46C6.49 11.12 7.41 11.45 8.63 11.45Z" fill="#313131"/>
</svg>
