<svg width="43" height="23" viewBox="0 0 43 23" fill="none" xmlns="http://www.w3.org/2000/svg">
<path d="M14.91 18.01H6.57L5.19 22H0.78L8.31 1.03H13.2L20.73 22H16.29L14.91 18.01ZM13.77 14.65L10.74 5.89L7.71 14.65H13.77ZM22.5246 11.5C22.5246 9.44 22.9846 7.6 23.9046 5.98C24.8446 4.34 26.1146 3.07 27.7146 2.17C29.3346 1.25 31.1446 0.789999 33.1446 0.789999C35.4846 0.789999 37.5346 1.39 39.2946 2.59C41.0546 3.79 42.2846 5.45 42.9846 7.57H38.1546C37.6746 6.57 36.9946 5.82 36.1146 5.32C35.2546 4.82 34.2546 4.57 33.1146 4.57C31.8946 4.57 30.8046 4.86 29.8446 5.44C28.9046 6 28.1646 6.8 27.6246 7.84C27.1046 8.88 26.8446 10.1 26.8446 11.5C26.8446 12.88 27.1046 14.1 27.6246 15.16C28.1646 16.2 28.9046 17.01 29.8446 17.59C30.8046 18.15 31.8946 18.43 33.1146 18.43C34.2546 18.43 35.2546 18.18 36.1146 17.68C36.9946 17.16 37.6746 16.4 38.1546 15.4H42.9846C42.2846 17.54 41.0546 19.21 39.2946 20.41C37.5546 21.59 35.5046 22.18 33.1446 22.18C31.1446 22.18 29.3346 21.73 27.7146 20.83C26.1146 19.91 24.8446 18.64 23.9046 17.02C22.9846 15.4 22.5246 13.56 22.5246 11.5Z" fill="white"/>
</svg>
