<svg width="23" height="23" viewBox="0 0 23 23" fill="none" xmlns="http://www.w3.org/2000/svg">
<path d="M0.11 5.5C0.11 3.98 0.55 2.79 1.43 1.93C2.33 1.07 3.48 0.64 4.88 0.64C6.28 0.64 7.42 1.07 8.3 1.93C9.2 2.79 9.65 3.98 9.65 5.5C9.65 7.04 9.2 8.24 8.3 9.1C7.42 9.96 6.28 10.39 4.88 10.39C3.48 10.39 2.33 9.96 1.43 9.1C0.55 8.24 0.11 7.04 0.11 5.5ZM19.37 0.999999L7.58 22H3.5L15.26 0.999999H19.37ZM4.85 3.16C3.75 3.16 3.2 3.94 3.2 5.5C3.2 7.08 3.75 7.87 4.85 7.87C5.39 7.87 5.81 7.68 6.11 7.3C6.41 6.9 6.56 6.3 6.56 5.5C6.56 3.94 5.99 3.16 4.85 3.16ZM13.28 17.47C13.28 15.93 13.72 14.74 14.6 13.9C15.5 13.04 16.65 12.61 18.05 12.61C19.45 12.61 20.58 13.04 21.44 13.9C22.32 14.74 22.76 15.93 22.76 17.47C22.76 19.01 22.32 20.21 21.44 21.07C20.58 21.93 19.45 22.36 18.05 22.36C16.63 22.36 15.48 21.93 14.6 21.07C13.72 20.21 13.28 19.01 13.28 17.47ZM18.02 15.13C16.88 15.13 16.31 15.91 16.31 17.47C16.31 19.05 16.88 19.84 18.02 19.84C19.14 19.84 19.7 19.05 19.7 17.47C19.7 15.91 19.14 15.13 18.02 15.13Z" fill="#78007A"/>
</svg>
