<svg width="24" height="18" viewBox="0 0 24 18" fill="none" xmlns="http://www.w3.org/2000/svg">
<path fill-rule="evenodd" clip-rule="evenodd" d="M7.54744 0H21.189C22.7486 0 24 1.23117 24 2.73684V15.2632C24 16.7688 22.7486 18 21.189 18H7.54744C6.59953 18 5.79204 17.536 5.26371 16.7706L0 8.99553L5.26858 1.21329C5.79051 0.457304 6.59922 0 7.54744 0ZM22.0168 2.73663C22.0168 2.26494 21.6403 1.89453 21.1901 1.89453H7.54851C7.29985 1.89453 7.09636 2.0096 6.93113 2.24885L2.36382 8.99531L2.01562 8.48098V9.50963L2.36382 8.99531L6.92626 15.7346C7.10025 15.9866 7.30625 16.105 7.54851 16.105H21.1901C21.6403 16.105 22.0168 15.7346 22.0168 15.2629V2.73663Z" fill="#313131"/>
<path fill-rule="evenodd" clip-rule="evenodd" d="M18.5465 12.0128L17.2344 13.2639L13.91 10.0941L10.5856 13.2639L9.27344 12.0128L12.5978 8.84291L9.27344 5.67303L10.5856 4.42188L13.91 7.59176L17.2344 4.42188L18.5465 5.67303L15.2221 8.84291L18.5465 12.0128Z" fill="#313131"/>
</svg>
